<svg xmlns="http://www.w3.org/2000/svg" width="20" height="20" viewBox="0 0 20 20" fill="none">
    <path fill-rule="evenodd" clip-rule="evenodd" d="M3.5 13.5V3.5H13.5V13.5H3.5ZM2 3C2 2.44772 2.44772 2 3 2H14C14.5523 2 15 2.44772 15 3V14C15 14.5523 14.5523 15 14 15H3C2.44772 15 2 14.5523 2 14V3Z" fill="#30343C"/>
    <path fill-rule="evenodd" clip-rule="evenodd" d="M6.5 15V16.5H16.5V6.5H15V5H17C17.5523 5 18 5.44772 18 6V17C18 17.5523 17.5523 18 17 18H6C5.44772 18 5 17.5523 5 17V15H6.5Z" fill="#30343C"/>
</svg>