<svg xmlns="http://www.w3.org/2000/svg" width="16" height="16" viewBox="0 0 16 16" fill="none">
    <path fill-rule="evenodd" clip-rule="evenodd" d="M4.39961 7.19999C4.84144 7.19999 5.19961 7.55816 5.19961 7.99999C5.19961 8.44182 4.84144 8.79999 4.39961 8.79999C3.95778 8.79999 3.59961 8.44182 3.59961 7.99999C3.59961 7.55816 3.95778 7.19999 4.39961 7.19999ZM7.99961 7.19999C8.44144 7.19999 8.79961 7.55816 8.79961 7.99999C8.79961 8.44182 8.44144 8.79999 7.99961 8.79999C7.55778 8.79999 7.19961 8.44182 7.19961 7.99999C7.19961 7.55816 7.55778 7.19999 7.99961 7.19999ZM12.3996 7.99999C12.3996 7.55816 12.0414 7.19999 11.5996 7.19999C11.1578 7.19999 10.7996 7.55816 10.7996 7.99999C10.7996 8.44182 11.1578 8.79999 11.5996 8.79999C12.0414 8.79999 12.3996 8.44182 12.3996 7.99999Z" fill="white"/>
</svg>