<svg xmlns="http://www.w3.org/2000/svg" width="20" height="20" viewBox="0 0 20 20" fill="none">
    <path fill-rule="evenodd" clip-rule="evenodd" d="M18.1728 10.4413C18.5257 10.253 18.5257 9.74715 18.1728 9.55892L4.99344 2.52993C4.61103 2.32598 4.16796 2.67192 4.27307 3.09237L5.75 9.0001H3C2.44772 9.0001 2 9.44782 2 10.0001C2 10.5524 2.44772 11.0001 3 11.0001H5.75L4.27307 16.9078C4.16796 17.3283 4.61103 17.6742 4.99343 17.4703L18.1728 10.4413ZM5.96968 10.1214L5.75 11.0001H11C11.5523 11.0001 12 10.5524 12 10.0001C12 9.44782 11.5523 9.0001 11 9.0001H5.75L5.96968 9.87883C5.98959 9.95845 5.98959 10.0417 5.96968 10.1214Z" fill="#D2D4DA"/>
</svg>