<svg xmlns="http://www.w3.org/2000/svg" width="20" height="20" viewBox="0 0 20 20" fill="none">
    <g opacity="0.2">
        <path fill-rule="evenodd" clip-rule="evenodd" d="M15.0002 6.5C15.8286 6.5 16.5002 5.82843 16.5002 5C16.5002 4.17157 15.8286 3.5 15.0002 3.5C14.1718 3.5 13.5002 4.17157 13.5002 5C13.5002 5.82843 14.1718 6.5 15.0002 6.5ZM15.0002 8C16.657 8 18.0002 6.65685 18.0002 5C18.0002 3.34315 16.657 2 15.0002 2C13.3433 2 12.0002 3.34315 12.0002 5C12.0002 5.21574 12.023 5.42616 12.0662 5.62899L7.26309 8.03056C6.7131 7.3991 5.90316 7 5 7C3.34315 7 2 8.34315 2 10C2 11.6569 3.34315 13 5 13C5.90316 13 6.7131 12.6009 7.26309 11.9694L12.0661 14.3709C12.0228 14.5738 12 14.7842 12 15C12 16.6569 13.3431 18 15 18C16.6569 18 18 16.6569 18 15C18 13.3431 16.6569 12 15 12C14.0973 12 13.2877 12.3987 12.7377 13.0297L7.93418 10.6279C7.97731 10.4254 8 10.2154 8 10C8 9.78464 7.97731 9.57457 7.93418 9.37207L12.7378 6.97025C13.2878 7.60124 14.0974 8 15.0002 8ZM15 16.5C15.8284 16.5 16.5 15.8284 16.5 15C16.5 14.1716 15.8284 13.5 15 13.5C14.1716 13.5 13.5 14.1716 13.5 15C13.5 15.8284 14.1716 16.5 15 16.5ZM6.5 10C6.5 10.8284 5.82843 11.5 5 11.5C4.17157 11.5 3.5 10.8284 3.5 10C3.5 9.17157 4.17157 8.5 5 8.5C5.82843 8.5 6.5 9.17157 6.5 10Z" fill="#30343C"/>
    </g>
</svg>